<svg width="21" height="15" viewBox="0 0 21 15" fill="none" xmlns="http://www.w3.org/2000/svg">
<path fill-rule="evenodd" clip-rule="evenodd" d="M10.3336 3.57388C12.5583 3.57397 14.698 4.41166 16.3104 5.91382C16.4318 6.02979 16.6258 6.02833 16.7454 5.91054L17.906 4.7627C17.9666 4.70296 18.0003 4.62204 17.9998 4.53784C17.9993 4.45364 17.9646 4.37311 17.9033 4.31407C13.6714 0.339729 6.99508 0.339729 2.76316 4.31407C2.70186 4.37307 2.66708 4.45357 2.66651 4.53777C2.66595 4.62197 2.69964 4.70292 2.76015 4.7627L3.9211 5.91054C4.0406 6.0285 4.23482 6.02997 4.35616 5.91382C5.96872 4.41157 8.10863 3.57387 10.3336 3.57388ZM10.332 7.29943C11.5557 7.29936 12.7358 7.75596 13.6429 8.58052C13.7656 8.69754 13.9588 8.695 14.0784 8.5748L15.239 7.39764C15.3001 7.33589 15.334 7.25213 15.3332 7.16509C15.3323 7.07805 15.2967 6.995 15.2343 6.93451C12.472 4.35514 8.19428 4.35514 5.432 6.93451C5.3696 6.995 5.334 7.07809 5.33319 7.16516C5.33237 7.25223 5.3664 7.33598 5.42764 7.39764L6.58789 8.5748C6.70749 8.695 6.90076 8.69754 7.02345 8.58052C7.92994 7.7565 9.10906 7.29994 10.332 7.29943ZM12.6664 10.023C12.6682 10.1085 12.6339 10.1909 12.5716 10.2507L10.5569 12.2419C10.4978 12.3004 10.4173 12.3333 10.3333 12.3333C10.2492 12.3333 10.1687 12.3004 10.1097 12.2419L8.09456 10.2507C8.03231 10.1908 7.99806 10.1084 7.99991 10.023C8.00175 9.9375 8.03953 9.85658 8.10431 9.79929C9.39101 8.73354 11.2755 8.73354 12.5622 9.79929C12.6269 9.85662 12.6647 9.93757 12.6664 10.023Z" fill="black"/>
</svg>
